<svg width="24" height="24" viewBox="0 0 24 24" fill="none" xmlns="http://www.w3.org/2000/svg">
<g clip-path="url(#clip0_19192_310222)">
<path fill-rule="evenodd" clip-rule="evenodd" d="M10.9393 1L11.4697 1.53033L12.1893 2.25H12H11.25V2.27842C6.21566 2.66139 2.25 6.86758 2.25 12C2.25 17.3848 6.61522 21.75 12 21.75C17.3848 21.75 21.75 17.3848 21.75 12C21.75 9.5775 20.8655 7.35967 19.4029 5.6547C19.1332 5.34032 18.6597 5.3041 18.3453 5.5738C18.0309 5.8435 17.9947 6.31699 18.2644 6.63137C19.5026 8.07471 20.25 9.94912 20.25 12C20.25 16.5564 16.5563 20.25 12 20.25C7.44365 20.25 3.75 16.5564 3.75 12C3.75 7.44365 7.44365 3.75 12 3.75H12.1893L11.4697 4.46967L10.9393 5L12 6.06066L12.5303 5.53033L14.5303 3.53033C14.8232 3.23744 14.8232 2.76256 14.5303 2.46967L12.5303 0.46967L12 -0.0606601L10.9393 1ZM10.4988 15.6994C10.9253 15.8998 11.4108 16 11.9555 16C12.5412 16 13.055 15.8831 13.4969 15.6493C13.9413 15.413 14.2869 15.0893 14.5335 14.6782C14.7827 14.2646 14.906 13.7919 14.9034 13.2601C14.906 12.754 14.7994 12.307 14.5836 11.9191C14.3678 11.5286 14.0736 11.2216 13.7011 10.9981C13.3286 10.7746 12.9047 10.6628 12.4295 10.6628C12.0826 10.6628 11.7692 10.727 11.4892 10.8555C11.2092 10.9839 10.9998 11.1458 10.8611 11.341H10.8148L11.0191 9.36416H14.468V8H9.64333L9.26953 12.1618L10.7532 12.4277C10.8739 12.2633 11.0422 12.1336 11.258 12.0385C11.4763 11.9435 11.7011 11.896 11.9323 11.896C12.197 11.8985 12.432 11.9589 12.6375 12.0771C12.8431 12.1952 13.0036 12.3597 13.1192 12.5703C13.2374 12.781 13.2965 13.025 13.2965 13.3025C13.2965 13.5748 13.2387 13.8163 13.1231 14.027C13.0101 14.2351 12.8521 14.3982 12.6491 14.5164C12.4487 14.632 12.2175 14.6898 11.9555 14.6898C11.6266 14.6898 11.3427 14.5947 11.1038 14.4046C10.8649 14.2145 10.7365 13.9666 10.7185 13.6609H9.09998C9.11025 14.1156 9.23999 14.5189 9.48919 14.8709C9.73838 15.2229 10.0749 15.499 10.4988 15.6994Z" fill="white"/>
</g>
<defs>
<clipPath id="clip0_19192_310222">
<rect width="24" height="24" fill="white"/>
</clipPath>
</defs>
</svg>
