<svg width="24" height="24" viewBox="0 0 24 24" fill="none" xmlns="http://www.w3.org/2000/svg">
<path fill-rule="evenodd" clip-rule="evenodd" d="M3 5C3 3.89543 3.89543 3 5 3H19C20.1046 3 21 3.89543 21 5V13C20.2322 13 19.4645 13.2929 18.8787 13.8787L18.5 14.2574L18.1213 13.8787C16.9497 12.7071 15.0503 12.7071 13.8787 13.8787C12.7071 15.0503 12.7071 16.9497 13.8787 18.1213L14.2574 18.5L13.8787 18.8787C13.2929 19.4645 13 20.2322 13 21H5C3.89543 21 3 20.1046 3 19V5ZM6 13.5C5.44772 13.5 5 13.9477 5 14.5C5 15.0523 5.44772 15.5 6 15.5H10C10.5523 15.5 11 15.0523 11 14.5C11 13.9477 10.5523 13.5 10 13.5H6ZM6 17C5.44772 17 5 17.4477 5 18C5 18.5523 5.44772 19 6 19H7C7.55228 19 8 18.5523 8 18C8 17.4477 7.55228 17 7 17H6Z" fill="white"/>
<path fill-rule="evenodd" clip-rule="evenodd" d="M16.7071 15.2929C16.3166 14.9024 15.6834 14.9024 15.2929 15.2929C14.9024 15.6834 14.9024 16.3166 15.2929 16.7071L17.0858 18.5L15.2929 20.2929C14.9024 20.6834 14.9024 21.3166 15.2929 21.7071C15.6834 22.0976 16.3166 22.0976 16.7071 21.7071L18.5 19.9142L20.2929 21.7071C20.6834 22.0976 21.3166 22.0976 21.7071 21.7071C22.0976 21.3166 22.0976 20.6834 21.7071 20.2929L19.9142 18.5L21.7071 16.7071C22.0976 16.3166 22.0976 15.6834 21.7071 15.2929C21.3166 14.9024 20.6834 14.9024 20.2929 15.2929L18.5 17.0858L16.7071 15.2929Z" fill="white"/>
</svg>
