<svg width="24" height="24" viewBox="0 0 24 24" fill="none" xmlns="http://www.w3.org/2000/svg">
<path fill-rule="evenodd" clip-rule="evenodd" d="M5 3C3.89543 3 3 3.89543 3 5V19C3 20.1046 3.89543 21 5 21H19C20.1046 21 21 20.1046 21 19V5C21 3.89543 20.1046 3 19 3H5ZM5.5 12C5.22386 12 5 12.2239 5 12.5V13.5C5 13.7761 5.22386 14 5.5 14H13.5C13.7761 14 14 13.7761 14 13.5V12.5C14 12.2239 13.7761 12 13.5 12H5.5ZM5.5 16C5.22386 16 5 16.2239 5 16.5V17.5C5 17.7761 5.22386 18 5.5 18H18.5C18.7761 18 19 17.7761 19 17.5V16.5C19 16.2239 18.7761 16 18.5 16H5.5ZM16 12.5C16 12.2239 16.2239 12 16.5 12H18.5C18.7761 12 19 12.2239 19 12.5V13.5C19 13.7761 18.7761 14 18.5 14H16.5C16.2239 14 16 13.7761 16 13.5V12.5Z" fill="white"/>
</svg>
