<svg width="24" height="24" viewBox="0 0 24 24" fill="none" xmlns="http://www.w3.org/2000/svg">
<path fill-rule="evenodd" clip-rule="evenodd" d="M5 2.25C3.48122 2.25 2.25 3.48122 2.25 5V19C2.25 20.5188 3.48122 21.75 5 21.75H19C20.5188 21.75 21.75 20.5188 21.75 19V5C21.75 3.48122 20.5188 2.25 19 2.25H5ZM3.75 5C3.75 4.30964 4.30964 3.75 5 3.75H19C19.6904 3.75 20.25 4.30964 20.25 5V19C20.25 19.6904 19.6904 20.25 19 20.25H5C4.30964 20.25 3.75 19.6904 3.75 19V5ZM6.5 16.5C6.22386 16.5 6 16.7239 6 17V17.5C6 17.7761 6.22386 18 6.5 18H17.5C17.7761 18 18 17.7761 18 17.5V17C18 16.7239 17.7761 16.5 17.5 16.5H6.5ZM6 13.5C6 13.2239 6.22386 13 6.5 13H13C13.2761 13 13.5 13.2239 13.5 13.5V14C13.5 14.2761 13.2761 14.5 13 14.5H6.5C6.22386 14.5 6 14.2761 6 14V13.5ZM16 13C15.7239 13 15.5 13.2239 15.5 13.5V14C15.5 14.2761 15.7239 14.5 16 14.5H17.5C17.7761 14.5 18 14.2761 18 14V13.5C18 13.2239 17.7761 13 17.5 13H16Z" fill="white"/>
</svg>
