<svg width="24" height="24" viewBox="0 0 24 24" fill="none" xmlns="http://www.w3.org/2000/svg">
<path fill-rule="evenodd" clip-rule="evenodd" d="M7 5C5.89543 5 5 5.89543 5 7V10C5 10.2761 4.77614 10.5 4.5 10.5H3.5C3.22386 10.5 3 10.2761 3 10V7C3 4.79086 4.79086 3 7 3H10C10.2761 3 10.5 3.22386 10.5 3.5V4.5C10.5 4.77614 10.2761 5 10 5H7ZM13.5 3.5C13.5 3.22386 13.7239 3 14 3H17C19.2091 3 21 4.79086 21 7V10C21 10.2761 20.7761 10.5 20.5 10.5H19.5C19.2239 10.5 19 10.2761 19 10V7C19 5.89543 18.1046 5 17 5H14C13.7239 5 13.5 4.77614 13.5 4.5V3.5ZM4.5 13.5C4.77614 13.5 5 13.7239 5 14V17C5 18.1046 5.89543 19 7 19H10C10.2761 19 10.5 19.2239 10.5 19.5V20.5C10.5 20.7761 10.2761 21 10 21H7C4.79086 21 3 19.2091 3 17V14C3 13.7239 3.22386 13.5 3.5 13.5H4.5ZM20.5 13.5C20.7761 13.5 21 13.7239 21 14V17C21 19.2091 19.2091 21 17 21H14C13.7239 21 13.5 20.7761 13.5 20.5V19.5C13.5 19.2239 13.7239 19 14 19H17C18.1046 19 19 18.1046 19 17V14C19 13.7239 19.2239 13.5 19.5 13.5H20.5Z" fill="white"/>
</svg>
