<svg width="24" height="24" viewBox="0 0 24 24" fill="none" xmlns="http://www.w3.org/2000/svg">
<path fill-rule="evenodd" clip-rule="evenodd" d="M12.0303 3.03033L12.5607 2.5L11.5 1.43934L10.9697 1.96967L8.46967 4.46967C8.17678 4.76256 8.17678 5.23744 8.46967 5.53033L10.9697 8.03033L11.5 8.56066L12.5607 7.5L12.0303 6.96967L10.8107 5.75H11H11.25H11.75H12C16.0041 5.75 19.25 8.99593 19.25 13C19.25 17.0041 16.0041 20.25 12 20.25C7.99594 20.25 4.75 17.0041 4.75 13C4.75 11.1976 5.40672 9.55057 6.49488 8.28214L6.98321 7.7129L5.84474 6.73624L5.3564 7.30547C4.0438 8.83554 3.25 10.826 3.25 13C3.25 17.8325 7.16751 21.75 12 21.75C16.8325 21.75 20.75 17.8325 20.75 13C20.75 8.16751 16.8325 4.25 12 4.25H11.75H11.25H11H10.8107L12.0303 3.03033Z" fill="white"/>
</svg>
