<svg width="24" height="24" viewBox="0 0 24 24" fill="none" xmlns="http://www.w3.org/2000/svg">
<path fill-rule="evenodd" clip-rule="evenodd" d="M5 2.25C3.48122 2.25 2.25 3.48122 2.25 5V19C2.25 20.5188 3.48122 21.75 5 21.75H19C20.5188 21.75 21.75 20.5188 21.75 19V5C21.75 3.48122 20.5188 2.25 19 2.25H5ZM3.75 5C3.75 4.30964 4.30964 3.75 5 3.75H19C19.6904 3.75 20.25 4.30964 20.25 5V19C20.25 19.6904 19.6904 20.25 19 20.25H5C4.30964 20.25 3.75 19.6904 3.75 19V5ZM8.5 9V11.25H10V9H11.5V15H10V12.75H8.5V15H7V9H8.5ZM12.5 9H15C16.1046 9 17 9.89543 17 11V13C17 14.1046 16.1046 15 15 15H12.5V9ZM14 10.5V13.5H15C15.2761 13.5 15.5 13.2761 15.5 13V11C15.5 10.7239 15.2761 10.5 15 10.5H14Z" fill="white"/>
</svg>
