<svg width="24" height="24" viewBox="0 0 24 24" fill="none" xmlns="http://www.w3.org/2000/svg">
<path fill-rule="evenodd" clip-rule="evenodd" d="M11.9983 22C12.6518 22 13.2906 21.9373 13.9091 21.8177L14.51 20.1877C15.0104 18.8305 16.4079 18.0237 17.8335 18.2689L19.5434 18.5631C20.3787 17.6037 21.034 16.4834 21.4567 15.2549L20.345 13.9188C19.4198 12.8069 19.4198 11.1931 20.345 10.0812L21.4567 8.74515C21.034 7.51663 20.3787 6.39634 19.5434 5.43689L17.8335 5.73108C16.4079 5.97635 15.0104 5.16946 14.51 3.81228L13.9091 2.18235C13.2906 2.06268 12.6518 2 11.9983 2C11.345 2 10.7063 2.06266 10.0879 2.18229L9.48691 3.81228C8.98655 5.16946 7.58898 5.97635 6.16344 5.73108L4.45324 5.43684C3.61799 6.39624 2.96273 7.51646 2.54004 8.7449L3.65191 10.0812C4.57708 11.1931 4.57708 12.8069 3.6519 13.9188L2.54004 15.2551C2.96273 16.4835 3.61799 17.6038 4.45324 18.5632L6.16344 18.2689C7.58898 18.0237 8.98655 18.8305 9.48691 20.1877L10.0879 21.8177C10.7063 21.9373 11.345 22 11.9983 22ZM12 16.5C14.4853 16.5 16.5 14.4853 16.5 12C16.5 9.51472 14.4853 7.5 12 7.5C9.51472 7.5 7.5 9.51472 7.5 12C7.5 14.4853 9.51472 16.5 12 16.5Z" fill="white"/>
</svg>
