<svg width="24" height="24" viewBox="0 0 24 24" fill="none" xmlns="http://www.w3.org/2000/svg">
<path fill-rule="evenodd" clip-rule="evenodd" d="M12 4.75C10.3683 4.75 8.77326 5.23385 7.41655 6.14038C6.05984 7.0469 5.00242 8.33537 4.378 9.84286C3.75358 11.3504 3.5902 13.0092 3.90853 14.6095C4.22685 16.2098 5.01259 17.6798 6.16637 18.8336L5.10571 19.8943C3.74215 18.5307 2.81355 16.7934 2.43735 14.9021C2.06114 13.0108 2.25422 11.0504 2.99218 9.26884C3.73013 7.48726 4.97982 5.96451 6.58319 4.89317C8.18657 3.82183 10.0716 3.25 12 3.25C13.9284 3.25 15.8134 3.82183 17.4168 4.89317C19.0202 5.96452 20.2699 7.48726 21.0078 9.26884C21.7458 11.0504 21.9389 13.0108 21.5627 14.9021C21.1865 16.7934 20.2579 18.5307 18.8943 19.8943L17.8336 18.8336C18.9874 17.6798 19.7732 16.2098 20.0915 14.6095C20.4098 13.0092 20.2464 11.3504 19.622 9.84286C18.9976 8.33537 17.9402 7.0469 16.5835 6.14038C15.2268 5.23385 13.6317 4.75 12 4.75ZM14 13C14 14.1046 13.1046 15 12 15C10.8954 15 10 14.1046 10 13C10 11.8954 10.8954 11 12 11C12.2771 11 12.5411 11.0564 12.7811 11.1583L15.4697 8.46967L16.5303 9.53033L13.8417 12.2189C13.9436 12.4589 14 12.7229 14 13Z" fill="#EEEEEE"/>
</svg>
