<svg width="24" height="24" viewBox="0 0 24 24" fill="none" xmlns="http://www.w3.org/2000/svg">
<path fill-rule="evenodd" clip-rule="evenodd" d="M14.1637 2.76187C14.4848 2.46989 15 2.69777 15 3.13184V20.8713C15 21.3054 14.4848 21.5332 14.1637 21.2413L9.49935 17.001H3C2.44772 17.001 2 16.5533 2 16.001V8.00098C2 7.44869 2.44772 7.00098 3 7.00098H9.50065L14.1637 2.76187ZM19.2071 7.05022C18.8166 6.65969 18.1834 6.65969 17.7929 7.05022C17.4024 7.44074 17.4024 8.07391 17.7929 8.46443C19.7455 10.4171 19.7455 13.5829 17.7929 15.5355C17.4024 15.926 17.4024 16.5592 17.7929 16.9497C18.1834 17.3402 18.8166 17.3402 19.2071 16.9497C21.9408 14.216 21.9408 9.78389 19.2071 7.05022Z" fill="white"/>
</svg>
