<svg width="24" height="24" viewBox="0 0 24 24" fill="none" xmlns="http://www.w3.org/2000/svg">
<path fill-rule="evenodd" clip-rule="evenodd" d="M15 3.13184C15 2.69777 14.4848 2.46989 14.1637 2.76187L9.50065 7.00098H3C2.44772 7.00098 2 7.44869 2 8.00098V16.001C2 16.5533 2.44772 17.001 3 17.001H9.49935L14.1637 21.2413C14.4848 21.5332 15 21.3054 15 20.8713V3.13184ZM17 15.4649C18.1956 14.7733 19 13.4806 19 12C19 10.5194 18.1956 9.22675 17 8.53513V15.4649ZM18.1082 6.86782C17.6358 6.58172 17.4847 5.96683 17.7708 5.49442C18.0569 5.02202 18.6718 4.87099 19.1442 5.15709C20.3333 5.87719 21.3141 6.8947 21.9902 8.10932C22.6662 9.32394 23.0141 10.6938 22.9996 12.0838C22.985 13.4738 22.6085 14.836 21.9072 16.0362C21.2058 17.2364 20.2039 18.2332 19 18.9282C18.5217 19.2043 17.9101 19.0405 17.634 18.5622C17.3578 18.0839 17.5217 17.4723 18 17.1962C18.9029 16.6749 19.6544 15.9273 20.1804 15.0272C20.7064 14.127 20.9888 13.1053 20.9997 12.0628C21.0106 11.0203 20.7497 9.99296 20.2426 9.08199C19.7356 8.17102 18.9999 7.40789 18.1082 6.86782Z" fill="white"/>
</svg>
