<svg width="24" height="24" viewBox="0 0 24 24" fill="none" xmlns="http://www.w3.org/2000/svg">
<path fill-rule="evenodd" clip-rule="evenodd" d="M15 3.13105C15 2.69697 14.4848 2.46909 14.1637 2.76108L9.50065 7.00018H3C2.44772 7.00018 2 7.44789 2 8.00018V16.0002C2 16.5525 2.44772 17.0002 3 17.0002H9.49935L14.1637 21.2405C14.4848 21.5325 15 21.3046 15 20.8705V3.13105Z" fill="white"/>
<path fill-rule="evenodd" clip-rule="evenodd" d="M18.2072 8.79289C17.8167 8.40237 17.1835 8.40237 16.793 8.79289C16.4025 9.18342 16.4025 9.81658 16.793 10.2071L18.5859 12L16.793 13.7929C16.4025 14.1834 16.4025 14.8166 16.793 15.2071C17.1835 15.5976 17.8167 15.5976 18.2072 15.2071L20.0001 13.4142L21.793 15.2071C22.1835 15.5976 22.8167 15.5976 23.2072 15.2071C23.5978 14.8166 23.5978 14.1834 23.2072 13.7929L21.4143 12L23.2072 10.2071C23.5978 9.81658 23.5978 9.18342 23.2072 8.79289C22.8167 8.40237 22.1835 8.40237 21.793 8.79289L20.0001 10.5858L18.2072 8.79289Z" fill="white"/>
</svg>
